<svg width="0" height="0" version="1.1" xmlns="http://www.w3.org/2000/svg">
	<defs>
		<symbol id="carta" viewBox="0 0 100 100">
			<path d="M17.8,28.2v43.6h64.4V28.2H17.8z M77.7,30.3L50,48.8L22.3,30.3H77.7z M19.9,69.7V31.2L50,51.2l30.1-20.1v38.5H19.9z" id="1095989397">
			</path>
		</symbol>
		<symbol id="dinheiro" viewBox="0 0 70 70">
			<path d="M35,10c-13.8,0-25,11.2-25,25s11.2,25,25,25s25-11.2,25-25S48.8,10,35,10z M35,58.1c-12.7,0-23.1-10.4-23.1-23.1
            S22.3,11.9,35,11.9c12.7,0,23.1,10.4,23.1,23.1S47.7,58.1,35,58.1z" id="1686023875">
			</path>
			<path d="M35.3,33.5c-4-1.2-5.3-2-5.3-3.7c0-2.3,2.7-2.8,5-2.8c3.6,0,4.7,2.3,4.8,2.4c0.2,0.5,0.8,0.7,1.3,0.5
            c0.5-0.2,0.7-0.8,0.5-1.3c-0.1-0.1-1.4-3.1-5.6-3.5V23c0-0.6-0.4-1-1-1c-0.6,0-1,0.4-1,1v2c-5.4,0.3-6,3.4-6,4.8
            c0,3.4,3.2,4.6,6.7,5.6C40,36.9,40,39,40,39.7c0,1.6-0.6,3.3-5.3,3.3c-4.1,0-4.7-2.4-4.8-2.5c-0.1-0.5-0.6-0.9-1.2-0.8
            c-0.5,0.1-0.9,0.6-0.8,1.2c0,0.2,0.8,3.8,6,4.1v2c0,0.6,0.4,1,1,1c0.6,0,1-0.4,1-1v-2.1c4.9-0.4,6-3,6-5.3
            C42,36.8,39.8,34.8,35.3,33.5z" id="1868993243">
			</path>
		</symbol>
		<symbol id="mapa" viewBox="0 0 70 70">
			<path d="M60,58.7l-5-18c-0.1-0.3-0.3-0.5-0.6-0.6l-9-4C45.2,36,45,36,44.8,36l-3,0.7c-0.5,0.8-0.9,1.5-1.3,2.3l3.5-0.8v6.1l-16,7.1
            l0-9.7l2.5-0.5c-0.2-0.6-0.5-1.3-0.8-1.9L27.1,40l-8.7-3.9c-0.2-0.1-0.5-0.1-0.8,0c-0.3,0.1-0.4,0.3-0.6,0.5l-7,17
            c-0.1,0.3-0.1,0.6,0,0.8c0.1,0.3,0.3,0.4,0.6,0.5l16,5c0.2,0.1,0.4,0.1,0.6,0L45,55l13.7,4.9c0.1,0,0.2,0.1,0.3,0.1
            c0.2,0,0.5-0.1,0.7-0.3C60,59.5,60.1,59.1,60,58.7z M18.5,38.3l7.5,3.3l0,8.9l-8.9-8.9L18.5,38.3z M12.3,53.4l4-9.6l9.7,9.7v4.2
            L12.3,53.4z M44,53.2l-16,4.4v-4l16-7.1V53.2z M55.5,50.1l-6-6l3.8-1.7L55.5,50.1z M46,38.5l5.5,2.5L46,43.5V38.5z M46,53.3v-7.6
            l1.5-0.7l9,9l1,3.4L46,53.3z" id="1071500947">
			</path>
			<path d="M35,45c-0.8,0-1.3-0.5-1.6-1.5l0-0.1l-0.7-2.5c-1.3-3.7-3.6-7.5-6.7-11.1c-1.9-2.2-3-5-3-7.9C23,15.3,28.4,10,35,10
            c6.6,0,12,5.3,12,11.9c0,2.9-1.1,5.7-3,7.9c-3.1,3.6-5.4,7.3-6.7,11.1l-0.7,2.5C36.3,44.5,35.8,45,35,45z M35,12
            c-5.5,0-10,4.5-10,9.9c0,2.4,0.9,4.8,2.5,6.6c3.3,3.8,5.7,7.7,7.1,11.8l0.4,1.5l0.4-1.5c1.4-4.1,3.8-8.1,7.1-11.9
            c1.6-1.8,2.5-4.2,2.5-6.6C45,16.5,40.5,12,35,12z" id="1286648672">
			</path>
			<path d="M35,27c-2.8,0-5-2.2-5-5s2.2-5,5-5c2.8,0,5,2.2,5,5S37.8,27,35,27z M35,19c-1.7,0-3,1.3-3,3s1.3,3,3,3c1.7,0,3-1.3,3-3
            S36.7,19,35,19z" id="1569864663">
			</path>
		</symbol>
		<symbol id="localizacao" viewBox="0 0 20 20">
			<path d="M10,1.375c-3.17,0-5.75,2.548-5.75,5.682c0,6.685,5.259,11.276,5.483,11.469c0.152,0.132,0.382,0.132,0.534,0c0.224-0.193,5.481-4.784,5.483-11.469C15.75,3.923,13.171,1.375,10,1.375 M10,17.653c-1.064-1.024-4.929-5.127-4.929-10.596c0-2.68,2.212-4.861,4.929-4.861s4.929,2.181,4.929,4.861C14.927,12.518,11.063,16.627,10,17.653 M10,3.839c-1.815,0-3.286,1.47-3.286,3.286s1.47,3.286,3.286,3.286s3.286-1.47,3.286-3.286S11.815,3.839,10,3.839 M10,9.589c-1.359,0-2.464-1.105-2.464-2.464S8.641,4.661,10,4.661s2.464,1.105,2.464,2.464S11.359,9.589,10,9.589" />
		</symbol>
		<symbol id="facebook" viewBox="0 0 448 512">
			<path d="M400 32H48A48 48 0 0 0 0 80v352a48 48 0 0 0 48 48h137.3V327.7h-63V256h63v-54.6c0-62.2 37-96.5 93.6-96.5 27.2 0 55.5 4.8 55.5 4.8v61h-31.2c-30.8 0-40.4 19.1-40.4 38.8V256h68.7l-11 71.7h-57.8V480H400a48 48 0 0 0 48-48V80a48 48 0 0 0-48-48z" />
		</symbol>
		<symbol id="facebook-lite" viewBox="0 0 320 512">
			<path fill="currentColor" d="M279.14 288l14.22-92.66h-88.91v-60.13c0-25.35 12.42-50.06 52.24-50.06h40.42V6.26S260.43 0 225.36 0c-73.22 0-121.08 44.38-121.08 124.72v70.62H22.89V288h81.39v224h100.17V288z">
			</path>
		</symbol>
		<symbol id="condominio" viewBox="0 0 288 512">
			<path d="M209 233l-108-31c-12-4-21-15-21-28 0-17 13-30 30-30h66c12 0 24 4 34 11 6 4 14 3 20-2l34-34c7-7 6-19-1-25-25-19-56-30-87-30V16c0-9-7-16-16-16h-32c-9 0-16 7-16 16v48h-2C46 64-5 119 1 184c4 46 39 83 83 96l103 30c12 4 21 15 21 28 0 17-13 30-29 30h-67c-12 0-24-4-34-10-6-5-14-4-19 2l-35 34c-7 6-6 18 2 24 24 19 55 30 86 30v48c0 9 7 16 16 16h32c9 0 16-7 16-16v-48c47-1 90-29 106-73 21-61-15-125-73-142z" />
		</symbol>
		<symbol id="instagran" viewBox="0 0 448 512">
			<path d="M224.1 141c-63.6 0-114.9 51.3-114.9 114.9s51.3 114.9 114.9 114.9S339 319.5 339 255.9 287.7 141 224.1 141zm0 189.6a74.8 74.8 0 1 1 .1-149.3 74.8 74.8 0 0 1-.1 149.3zm146.4-194.3a26.7 26.7 0 1 1-53.6 0 26.8 26.8 0 0 1 53.6 0zm76.1 27.2c-1.7-35.9-9.9-67.7-36.2-93.9-26.2-26.2-58-34.4-93.9-36.2-37-2.1-147.9-2.1-184.9 0-35.8 1.7-67.6 9.9-93.9 36.1s-34.4 58-36.2 93.9c-2.1 37-2.1 147.9 0 184.9 1.7 35.9 9.9 67.7 36.2 93.9s58 34.4 93.9 36.2c37 2.1 147.9 2.1 184.9 0 35.9-1.7 67.7-9.9 93.9-36.2 26.2-26.2 34.4-58 36.2-93.9 2.1-37 2.1-147.8 0-184.8zM398.8 388a75.6 75.6 0 0 1-42.6 42.6c-29.5 11.7-99.5 9-132.1 9s-102.7 2.6-132.1-9A75.6 75.6 0 0 1 49.4 388c-11.7-29.5-9-99.5-9-132.1s-2.6-102.7 9-132.1A75.6 75.6 0 0 1 92 81.2c29.5-11.7 99.5-9 132.1-9s102.7-2.6 132.1 9a75.6 75.6 0 0 1 42.6 42.6c11.7 29.5 9 99.5 9 132.1s2.7 102.7-9 132.1z" />
		</symbol>
		<symbol id="telefone" viewBox="0 0 448 512">
			<path d="M400 32H48A48 48 0 0 0 0 80v352a48 48 0 0 0 48 48h352a48 48 0 0 0 48-48V80a48 48 0 0 0-48-48zm-16 307l-15 65a15 15 0 0 1-15 12A290 290 0 0 1 64 126a16 16 0 0 1 12-15l65-15a18 18 0 0 1 3 0 16 16 0 0 1 14 9l30 70a18 18 0 0 1 1 6 17 17 0 0 1-5 12l-38 31a232 232 0 0 0 110 110l31-38a17 17 0 0 1 12-5 18 18 0 0 1 6 1l70 30a16 16 0 0 1 9 14 17 17 0 0 1 0 3z" />
		</symbol>
		<symbol id="whatshap" viewBox="0 0 448 512">
			<path d="M381 97A222 222 0 0 0 32 365L0 480l118-31a224 224 0 0 0 330-195c0-59-25-115-67-157zM224 439c-33 0-66-9-94-26l-7-4-70 18 19-68-4-7a185 185 0 0 1 287-229c34 35 56 82 55 131 1 102-84 185-186 185zm101-138c-5-3-33-17-38-18-5-2-9-3-12 2l-18 22c-3 4-6 4-12 2-33-17-54-30-75-66-6-10 5-10 16-31 2-3 1-7-1-9l-17-42c-4-10-9-9-12-9h-11c-4 0-10 1-15 7-5 5-19 19-19 46s20 54 23 57c2 4 39 60 94 84 36 15 49 17 67 14 11-2 33-13 37-26 5-13 5-25 4-27-2-2-5-4-11-6z" />
		</symbol>
		<symbol id="seta-top" viewBox="0 0 70 70">
			<polygon points="17.4,45.7 15.1,43.3 35,24.3 54.9,43.3 52.6,45.7 35,28.8 " id="1043127631">
			</polygon>
		</symbol>
		<symbol id="seta-bottom" viewBox="0 0 70 70">
			<polygon points="35,45.7 15.1,26.7 17.4,24.3 35,41.2 52.6,24.3 54.9,26.7 " id="1631424488">
			</polygon>
		</symbol>
		<symbol id="seta-left" viewBox="0 0 70 70">
			<polygon points="43.8,54.9 23.9,35 43.8,15.1 46.1,17.4 28.5,35 46.1,52.6 " id="1107970444">
			</polygon>
		</symbol>
		<symbol id="seta-right" viewBox="0 0 70 70">
			<polygon points="26.2,54.9 23.9,52.6 41.5,35 23.9,17.4 26.2,15.1 46.1,35 " id="1560916990">
			</polygon>
		</symbol>
		<symbol id="horario" viewBox="0 0 510 510">
			<path style="fill-opacity:0.9;" d="M255,0C114.75,0,0,114.75,0,255s114.75,255,255,255s255-114.75,255-255S395.25,0,255,0z     M255,459c-112.2,0-204-91.8-204-204S142.8,51,255,51s204,91.8,204,204S367.2,459,255,459z" />
			<polygon style="fill-opacity:0.9;" points="267.75,127.5 229.5,127.5 229.5,280.5 362.1,362.1 382.5,328.95 267.75,260.1   " />
		</symbol>
		<symbol id="delete" viewBox="0 0 91 91">
			<path d="M67.305,36.442v-8.055c0-0.939-0.762-1.701-1.7-1.701H54.342v-5.524c0-0.938-0.761-1.7-1.699-1.7h-12.75   c-0.939,0-1.701,0.762-1.701,1.7v5.524H26.93c-0.939,0-1.7,0.762-1.7,1.701v8.055c0,0.938,0.761,1.699,1.7,1.699h0.488v34.021   c0,0.938,0.761,1.7,1.699,1.7h29.481c3.595,0,6.52-2.924,6.52-6.518V38.142h0.486C66.543,38.142,67.305,37.381,67.305,36.442z    M41.592,22.862h9.35v3.824h-9.35V22.862z M61.719,67.345c0,1.719-1.4,3.117-3.12,3.117h-27.78v-32.32l30.9,0.002V67.345z    M63.904,34.742H28.629v-4.655h11.264h12.75h11.262V34.742z" />
		</symbol>
		<symbol id="lupa" width="24" height="24" viewBox="0 0 24 24">
			<path d="M15.5 14h-.79l-.28-.27C15.41 12.59 16 11.11 16 9.5 16 5.91 13.09 3 9.5 3S3 5.91 3 9.5 5.91 16 9.5 16c1.61 0 3.09-.59 4.23-1.57l.27.28v.79l5 4.99L20.49 19l-4.99-5zm-6 0C7.01 14 5 11.99 5 9.5S7.01 5 9.5 5 14 7.01 14 9.5 11.99 14 9.5 14z" />
			<path d="M0 0h24v24H0z" fill="none" />
		</symbol>
		<symbol id="quarto" viewBox="0 0 70 70">
			<path d="M61,24c-0.6,0-1,0.4-1,1v11h-2v-7c0-2.8-2.2-5-5-5H25c-1.3,0-2.4,0.5-3.3,1.3C21,23.4,19.2,22,17,22c-2.8,0-5,2.2-5,5
            s2.2,5,5,5c1.1,0,2.2-0.4,3-1v1h-3h-7V21c0-0.6-0.4-1-1-1s-1,0.4-1,1v28c0,0.6,0.4,1,1,1s1-0.4,1-1v-7h50v7c0,0.6,0.4,1,1,1
            c0.6,0,1-0.4,1-1V25C62,24.4,61.6,24,61,24z M25,26h28c1.7,0,3,1.3,3,3v7H22v-7C22,27.3,23.3,26,25,26z M17,30c-1.7,0-3-1.3-3-3
            s1.3-3,3-3s3,1.3,3,3S18.7,30,17,30z M10,34h10v2H10V34z M60,40H10v-2h50V40z" id="1722814901">
			</path>
		</symbol>
		<symbol id="suite" viewBox="0 0 100 100">
			<path d="M54.55,79.51h-9.1c-10.39,0-19.9-5.36-21.21-11.95l-2.19-11a1.12,1.12,0,1,1,2.2-.44l2.19,11c1.09,5.5,9.79,10.14,19,10.14h9.1c9.21,0,17.92-4.64,19-10.14l2.19-11a1.12,1.12,0,0,1,2.2.44l-2.19,11C74.45,74.16,64.94,79.51,54.55,79.51Z" id="1742194015">
			</path>
			<path d="M74.83,57.43H25.17c-3,0-5.29-1.73-5.29-3.94s2.32-3.94,5.29-3.94H74.83c3,0,5.29,1.73,5.29,3.94S77.8,57.43,74.83,57.43ZM25.17,51.79c-1.74,0-3,.9-3,1.7s1.3,1.7,3,1.7H74.83c1.74,0,3-.9,3-1.7s-1.3-1.7-3-1.7Z" id="1461063940">
			</path>
			<path d="M31,85.86h0a2,2,0,0,1-.69-.12l-.83-.31A2.05,2.05,0,0,1,28.23,83l1.89-7.15a1.87,1.87,0,0,1,1.8-1.4,1.91,1.91,0,0,1,.66.12l2.43.9a1.87,1.87,0,0,1,1,2.58l-3.2,6.66A2.06,2.06,0,0,1,31,85.86Zm-.57-2.47.48.18,2.95-6.14-1.69-.62Z" id="1039773095">
			</path>
			<path d="M69,85.86a2.06,2.06,0,0,1-1.85-1.15L63.93,78a1.86,1.86,0,0,1,1-2.58l2.43-.9a1.91,1.91,0,0,1,.66-.12,1.87,1.87,0,0,1,1.8,1.4L71.77,83a2.05,2.05,0,0,1-1.26,2.43l-.83.31A2,2,0,0,1,69,85.86Zm-2.86-8.43,2.95,6.14.48-.18-1.74-6.58Z" id="1705224477">
			</path>
			<path d="M67.9,36.3H51.3a1.12,1.12,0,0,1-1.12-1.12V33A9.42,9.42,0,0,1,69,33v2.17A1.12,1.12,0,0,1,67.9,36.3ZM52.42,34.06H66.78V33a7.18,7.18,0,0,0-14.35,0Z" id="1832227936">
			</path>
			<path d="M76.19,51.79a1.12,1.12,0,0,1-1.12-1.12V23.56a7.18,7.18,0,0,0-14.35,0v1.16a1.12,1.12,0,1,1-2.24,0V23.56a9.42,9.42,0,0,1,18.83,0V50.67A1.12,1.12,0,0,1,76.19,51.79Z" id="1442765601">
			</path>
		</symbol>
		<symbol id="vaga" viewBox="0 0 70 70">
			<path d="M59.5,30l-3.6-12.1c-0.9-2.8-8.5-4.4-20.9-4.4c-12.3,0-19.9,1.6-20.9,4.5l-3.6,12c-0.4,0.9-0.5,1.9-0.5,2.9v14.7
            c0,1.3,0.8,2.4,2,2.8v3.2c0,1.7,1.3,3,3,3h2c1.7,0,3-1.3,3-3v-3h30v3c0,1.7,1.3,3,3,3h2c1.7,0,3-1.3,3-3v-3.2c1.2-0.4,2-1.5,2-2.8
            V32.8C60,31.8,59.8,30.8,59.5,30z M16,18.6c0.2-0.7,4.1-3.1,19-3.1s18.8,2.4,19,3l3.6,12H12.4L16,18.6z M18,53.5c0,0.6-0.4,1-1,1
            h-2c-0.6,0-1-0.4-1-1v-3h4V53.5z M55,54.5h-2c-0.6,0-1-0.4-1-1v-3h4v3C56,54.1,55.6,54.5,55,54.5z M58,47.5c0,0.6-0.4,1-1,1H13
            c-0.6,0-1-0.4-1-1V32.8c0-0.1,0-0.2,0-0.3h46c0,0.1,0,0.2,0,0.3V47.5z" id="1885283135">
			</path>
			<path d="M18,36.5c-2.2,0-4,1.8-4,4s1.8,4,4,4c2.2,0,4-1.8,4-4S20.2,36.5,18,36.5z M18,42.5c-1.1,0-2-0.9-2-2s0.9-2,2-2
            c1.1,0,2,0.9,2,2S19.1,42.5,18,42.5z" id="1696050022">
			</path>
			<path d="M52,36.5c-2.2,0-4,1.8-4,4s1.8,4,4,4c2.2,0,4-1.8,4-4S54.2,36.5,52,36.5z M52,42.5c-1.1,0-2-0.9-2-2s0.9-2,2-2
            c1.1,0,2,0.9,2,2S53.1,42.5,52,42.5z" id="1270940279">
			</path>
		</symbol>
		<symbol id="banheiro" viewBox="0 0 100 100">
			<path d="M43.31,72.54A22.71,22.71,0,0,1,21.69,55.76a1.15,1.15,0,0,1,2.22-.62,20.4,20.4,0,0,0,19.4,15.1A20.38,20.38,0,0,0,62.74,55.05a1.15,1.15,0,0,1,2.22.61A22.69,22.69,0,0,1,43.31,72.54Z" id="1263257926">
			</path>
			<path d="M77.82,55.9H22.18a3.56,3.56,0,0,1-3.56-3.56v-.08a3.56,3.56,0,0,1,3.56-3.56H77.82a3.56,3.56,0,0,1,3.56,3.56v.08A3.56,3.56,0,0,1,77.82,55.9ZM22.18,51a1.26,1.26,0,0,0-1.26,1.26v.08a1.26,1.26,0,0,0,1.26,1.26H77.82a1.26,1.26,0,0,0,1.26-1.26v-.08A1.26,1.26,0,0,0,77.82,51Z" id="1311215567">
			</path>
			<path d="M63.93,55.5a1.15,1.15,0,0,1-1.12-1.42A28.87,28.87,0,0,0,63,49l0-.09a3.56,3.56,0,0,1-.26-1.23v-32a4.57,4.57,0,0,1,4.81-4.4H76.8a4.16,4.16,0,0,1,4.29,4.4v32c0,.08,0,.27,0,.5a8.13,8.13,0,0,1,0,1.67,1.15,1.15,0,0,1-2.28-.35c0-.19,0-.85-.05-1.18s0-.55,0-.64v-32a1.86,1.86,0,0,0-2-2.09H67.48A2.29,2.29,0,0,0,65,15.68v32a2,2,0,0,0,.13.46l.11.32a1.15,1.15,0,0,1,.05.29,31.94,31.94,0,0,1-.21,5.89A1.15,1.15,0,0,1,63.93,55.5Z" id="1758691058">
			</path>
			<path d="M72.45,88.72H40.21a1.15,1.15,0,1,1,0-2.3H72.45a1.15,1.15,0,1,1,0,2.3Z" id="1373837929">
			</path>
			<path d="M45,87.6a1.15,1.15,0,0,1-.85-1.93,7,7,0,0,0,1.57-5.25c-.39-2.51-2.43-4.84-6-6.95a1.15,1.15,0,0,1,1.16-2C45.13,74,47.54,76.86,48,80.1a9.24,9.24,0,0,1-2.15,7.13A1.15,1.15,0,0,1,45,87.6Z" id="1085338942">
			</path>
			<path d="M69.84,88.43A1.15,1.15,0,0,1,68.72,87l8.7-31.92a1.15,1.15,0,0,1,2.22.61l-8.7,31.92A1.15,1.15,0,0,1,69.84,88.43Z" id="1345213725">
			</path>
			<path d="M72.71,25.52a4,4,0,1,1,4-4A4,4,0,0,1,72.71,25.52Zm0-5.75a1.72,1.72,0,1,0,1.72,1.72A1.72,1.72,0,0,0,72.71,19.78Z" id="1616504381">
			</path>
			<path d="M59.79,46.4H22.37a1.15,1.15,0,1,1,0-2.3H59.79a1.15,1.15,0,1,1,0,2.3Z" id="1376375082">
			</path>
		</symbol>
		<symbol id="localizacao" viewBox="0 0 20 20">
			<path d="M10,1.375c-3.17,0-5.75,2.548-5.75,5.682c0,6.685,5.259,11.276,5.483,11.469c0.152,0.132,0.382,0.132,0.534,0c0.224-0.193,5.481-4.784,5.483-11.469C15.75,3.923,13.171,1.375,10,1.375 M10,17.653c-1.064-1.024-4.929-5.127-4.929-10.596c0-2.68,2.212-4.861,4.929-4.861s4.929,2.181,4.929,4.861C14.927,12.518,11.063,16.627,10,17.653 M10,3.839c-1.815,0-3.286,1.47-3.286,3.286s1.47,3.286,3.286,3.286s3.286-1.47,3.286-3.286S11.815,3.839,10,3.839 M10,9.589c-1.359,0-2.464-1.105-2.464-2.464S8.641,4.661,10,4.661s2.464,1.105,2.464,2.464S11.359,9.589,10,9.589" />
		</symbol>
		<symbol id="mapa" viewBox="0 0 70 70">
			<path d="M60,58.7l-5-18c-0.1-0.3-0.3-0.5-0.6-0.6l-9-4C45.2,36,45,36,44.8,36l-3,0.7c-0.5,0.8-0.9,1.5-1.3,2.3l3.5-0.8v6.1l-16,7.1
            l0-9.7l2.5-0.5c-0.2-0.6-0.5-1.3-0.8-1.9L27.1,40l-8.7-3.9c-0.2-0.1-0.5-0.1-0.8,0c-0.3,0.1-0.4,0.3-0.6,0.5l-7,17
            c-0.1,0.3-0.1,0.6,0,0.8c0.1,0.3,0.3,0.4,0.6,0.5l16,5c0.2,0.1,0.4,0.1,0.6,0L45,55l13.7,4.9c0.1,0,0.2,0.1,0.3,0.1
            c0.2,0,0.5-0.1,0.7-0.3C60,59.5,60.1,59.1,60,58.7z M18.5,38.3l7.5,3.3l0,8.9l-8.9-8.9L18.5,38.3z M12.3,53.4l4-9.6l9.7,9.7v4.2
            L12.3,53.4z M44,53.2l-16,4.4v-4l16-7.1V53.2z M55.5,50.1l-6-6l3.8-1.7L55.5,50.1z M46,38.5l5.5,2.5L46,43.5V38.5z M46,53.3v-7.6
            l1.5-0.7l9,9l1,3.4L46,53.3z" id="1071500947">
			</path>
			<path d="M35,45c-0.8,0-1.3-0.5-1.6-1.5l0-0.1l-0.7-2.5c-1.3-3.7-3.6-7.5-6.7-11.1c-1.9-2.2-3-5-3-7.9C23,15.3,28.4,10,35,10
            c6.6,0,12,5.3,12,11.9c0,2.9-1.1,5.7-3,7.9c-3.1,3.6-5.4,7.3-6.7,11.1l-0.7,2.5C36.3,44.5,35.8,45,35,45z M35,12
            c-5.5,0-10,4.5-10,9.9c0,2.4,0.9,4.8,2.5,6.6c3.3,3.8,5.7,7.7,7.1,11.8l0.4,1.5l0.4-1.5c1.4-4.1,3.8-8.1,7.1-11.9
            c1.6-1.8,2.5-4.2,2.5-6.6C45,16.5,40.5,12,35,12z" id="1286648672">
			</path>
			<path d="M35,27c-2.8,0-5-2.2-5-5s2.2-5,5-5c2.8,0,5,2.2,5,5S37.8,27,35,27z M35,19c-1.7,0-3,1.3-3,3s1.3,3,3,3c1.7,0,3-1.3,3-3
            S36.7,19,35,19z" id="1569864663">
			</path>
		</symbol>
		<symbol id="foto" viewBox="0 0 30 30">
			<path d="M10,6.536c-2.263,0-4.099,1.836-4.099,4.098S7.737,14.732,10,14.732s4.099-1.836,4.099-4.098S12.263,6.536,10,6.536M10,13.871c-1.784,0-3.235-1.453-3.235-3.237S8.216,7.399,10,7.399c1.784,0,3.235,1.452,3.235,3.235S11.784,13.871,10,13.871M17.118,5.672l-3.237,0.014L12.52,3.697c-0.082-0.105-0.209-0.168-0.343-0.168H7.824c-0.134,0-0.261,0.062-0.343,0.168L6.12,5.686H2.882c-0.951,0-1.726,0.748-1.726,1.699v7.362c0,0.951,0.774,1.725,1.726,1.725h14.236c0.951,0,1.726-0.773,1.726-1.725V7.195C18.844,6.244,18.069,5.672,17.118,5.672 M17.98,14.746c0,0.477-0.386,0.861-0.862,0.861H2.882c-0.477,0-0.863-0.385-0.863-0.861V7.384c0-0.477,0.386-0.85,0.863-0.85l3.451,0.014c0.134,0,0.261-0.062,0.343-0.168l1.361-1.989h3.926l1.361,1.989c0.082,0.105,0.209,0.168,0.343,0.168l3.451-0.014c0.477,0,0.862,0.184,0.862,0.661V14.746z" />
		</symbol>
		<symbol id="search" viewBox="0 0 512 512">
			<path d="M505 443L405 343c-4-4-10-7-17-7h-16a208 208 0 1 0-36 36v16c0 7 3 13 7 17l100 100c9 9 24 9 34 0l28-28c9-10 9-25 0-34zM208 336a128 128 0 1 1 0-256 128 128 0 0 1 0 256z0-4.099,1.836-4.099,4.098S7.737,14.732,10,14.732s4.099-1.836,4.099-4.098S12.263,6.536,10,6.536M10,13.871c-1.784,0-3.235-1.453-3.235-3.237S8.216,7.399,10,7.399c1.784,0,3.235,1.452,3.235,3.235S11.784,13.871,10,13.871M17.118,5.672l-3.237,0.014L12.52,3.697c-0.082-0.105-0.209-0.168-0.343-0.168H7.824c-0.134,0-0.261,0.062-0.343,0.168L6.12,5.686H2.882c-0.951,0-1.726,0.748-1.726,1.699v7.362c0,0.951,0.774,1.725,1.726,1.725h14.236c0.951,0,1.726-0.773,1.726-1.725V7.195C18.844,6.244,18.069,5.672,17.118,5.672 M17.98,14.746c0,0.477-0.386,0.861-0.862,0.861H2.882c-0.477,0-0.863-0.385-0.863-0.861V7.384c0-0.477,0.386-0.85,0.863-0.85l3.451,0.014c0.134,0,0.261-0.062,0.343-0.168l1.361-1.989h3.926l1.361,1.989c0.082,0.105,0.209,0.168,0.343,0.168l3.451-0.014c0.477,0,0.862,0.184,0.862,0.661V14.746z" />
		</symbol>
		<symbol id="area" viewBox="0 0 1024 1024">
			<path d="M951.423543 491.107157l-429.971775-350.267479L91.495342 491.107157l-37.151132-40.86778 435.854762-355.046319c18.189268-14.833847 44.322461-14.833847 62.525032 0l434.141748 353.664855L951.423543 491.107157zM866.277304 928.923598l-689.636746 0c-19.527752 0-35.356252-15.829524-35.356252-35.356252L141.284305 406.77547c0-19.527752 15.827477-35.357276 35.356252-35.357276 19.529799 0 21.215184 1.685385 21.215184 21.214161l0 479.718783 647.208425 0L845.064166 406.77547c0-19.527752 1.670036-35.357276 21.213137-35.357276 19.514449 0 35.358299 15.8285 35.358299 35.357276l0 486.791875C901.635603 913.094074 885.7938 928.923598 866.277304 928.923598zM780.550851 158.394497 724.726427 158.394497c-3.687996 0-6.671956 5.870708-6.671956 13.121855l0 67.273173c0 3.949962 0.924045 7.67889 2.457981 10.178827l51.91437 83.22754c1.188058 1.905396 2.681062 2.940982 4.213975 2.940982l3.90596 0c3.689019 0 6.658653-5.881964 6.658653-13.118785L787.205411 171.515329C787.209504 164.264181 784.239869 158.394497 780.550851 158.394497zM645.187907 743.54861l-64.99427 0L580.193637 616.19406c0-34.169217-12.44545-51.27992-37.332257-51.27992-11.585873 0-21.201881 5.192256-28.864398 15.564487-7.667633 10.346649-11.505032 23.010063-11.505032 37.926798l0 125.144208L437.494611 743.549633 437.494611 614.564957c0-33.106002-12.305257-49.65184-36.945447-49.65184-12.237719 0-22.016433 4.958942-29.349445 14.849196-7.347339 9.902534-11.007705 22.980387-11.007705 39.248909l0 124.536364-65.189721 0L295.002292 520.329712l65.189721 0 0 34.902928 0.814552 0c7.789407-12.775978 18.161638-22.707165 31.090089-29.779234 12.897751-7.045463 26.490328-10.578939 40.769542-10.578939 31.339776 0 52.800553 14.057157 64.388473 42.178635 17.223267-28.119431 42.249243-42.178635 75.063603-42.178635 48.587602 0 72.868611 29.996175 72.868611 90.004897L645.187907 743.54861 645.187907 743.54861zM768.38374 585.271794l-96.499821 0 0-24.26873 42.512233-40.797172c8.947789-8.53642 15.176654-15.702634 18.739806-21.48943 3.578502-5.799076 5.346775-11.835559 5.346775-18.078751 0-14.07353-7.55507-21.11797-22.636556-21.11797-12.67774 0-24.943089 5.109368-36.790928 15.287171L679.055249 447.379237c12.69002-8.411577 27.069519-12.609179 43.186591-12.609179 14.585183 0 26.158776 3.714602 34.694173 11.146874 8.519024 7.4159 12.802584 17.691941 12.802584 30.812773 0 17.331737-10.523681 35.479049-31.531134 54.484915l-30.869055 27.800159 0 0.568958 61.046355 0L768.38374 585.271794 768.38374 585.271794z" />
		</symbol>
		<symbol id="facebook" viewBox="0 0 448 512">
			<path d="M400 32H48A48 48 0 0 0 0 80v352a48 48 0 0 0 48 48h137.3V327.7h-63V256h63v-54.6c0-62.2 37-96.5 93.6-96.5 27.2 0 55.5 4.8 55.5 4.8v61h-31.2c-30.8 0-40.4 19.1-40.4 38.8V256h68.7l-11 71.7h-57.8V480H400a48 48 0 0 0 48-48V80a48 48 0 0 0-48-48z" />
		</symbol>
		<symbol id="condominio" viewBox="0 0 70 70">
			<path d="M35,10c-13.8,0-25,11.2-25,25s11.2,25,25,25s25-11.2,25-25S48.8,10,35,10z M35,58.1c-12.7,0-23.1-10.4-23.1-23.1
            S22.3,11.9,35,11.9c12.7,0,23.1,10.4,23.1,23.1S47.7,58.1,35,58.1z" id="1686023875">
			</path>
			<path d="M35.3,33.5c-4-1.2-5.3-2-5.3-3.7c0-2.3,2.7-2.8,5-2.8c3.6,0,4.7,2.3,4.8,2.4c0.2,0.5,0.8,0.7,1.3,0.5
            c0.5-0.2,0.7-0.8,0.5-1.3c-0.1-0.1-1.4-3.1-5.6-3.5V23c0-0.6-0.4-1-1-1c-0.6,0-1,0.4-1,1v2c-5.4,0.3-6,3.4-6,4.8
            c0,3.4,3.2,4.6,6.7,5.6C40,36.9,40,39,40,39.7c0,1.6-0.6,3.3-5.3,3.3c-4.1,0-4.7-2.4-4.8-2.5c-0.1-0.5-0.6-0.9-1.2-0.8
            c-0.5,0.1-0.9,0.6-0.8,1.2c0,0.2,0.8,3.8,6,4.1v2c0,0.6,0.4,1,1,1c0.6,0,1-0.4,1-1v-2.1c4.9-0.4,6-3,6-5.3
            C42,36.8,39.8,34.8,35.3,33.5z" id="1868993243">
			</path>
		</symbol>
	</defs>
</svg>
